<?xml version="1.0" encoding="utf-8"?>
<!-- Generator: Adobe Illustrator 25.0.1, SVG Export Plug-In . SVG Version: 6.00 Build 0)  -->
<svg version="1.1" id="Capa_2" xmlns="http://www.w3.org/2000/svg" xmlns:xlink="http://www.w3.org/1999/xlink" x="0px" y="0px"
	 viewBox="0 0 71.9 92" style="enable-background:new 0 0 71.9 92;" xml:space="preserve">
<style type="text/css">
	.st0{fill-rule:evenodd;clip-rule:evenodd;fill:none;}
	.st1{fill:#FFFFFF;}
	.st2{fill-rule:evenodd;clip-rule:evenodd;fill:#0056B4;}
	.st3{fill-rule:evenodd;clip-rule:evenodd;fill:#E15200;}
	.st4{fill-rule:evenodd;clip-rule:evenodd;fill:#EFA220;}
	.st5{fill-rule:evenodd;clip-rule:evenodd;}
</style>
<rect x="0.2" class="st0" width="71.7" height="92.3"/>
<rect x="0.2" class="st1" width="71.7" height="92.3"/>
<path d="M13.7,78l-1.5,2.9l-0.3-0.1c0-0.1,0-0.1,0-0.1c0-0.2-0.2-0.4-0.5-0.7c-1.1-0.7-2.3-1.1-3.8-1.1c-0.6,0-1.2,0.1-1.7,0.2
	c-0.4,0.1-0.6,0.3-0.9,0.5c-0.2,0.2-0.3,0.5-0.3,0.8c0,0.5,0.3,0.8,0.8,0.9c0.3,0.1,0.9,0.2,1.9,0.3l1.4,0.1c0.8,0.1,1.5,0.2,2,0.4
	c0.5,0.2,1,0.4,1.4,0.7c0.4,0.3,0.7,0.7,1,1.2c0.2,0.5,0.4,1,0.4,1.5c0,0.9-0.3,1.6-0.8,2.3c-0.5,0.6-1.3,1.1-2.4,1.4
	c-0.8,0.2-1.6,0.3-2.6,0.3c-1.6,0-3.2-0.4-4.8-1.2c-0.3-0.2-0.5-0.2-0.6-0.2c-0.1,0-0.2,0.1-0.4,0.2l-0.3-0.1l1.3-3l0.3,0.1
	c0,0.1,0,0.1,0,0.1c0,0.3,0.1,0.5,0.4,0.7c0.4,0.3,1,0.6,1.8,0.9c0.8,0.3,1.6,0.4,2.3,0.4c0.8,0,1.5-0.1,2-0.4
	c0.3-0.2,0.6-0.3,0.7-0.6c0.2-0.2,0.3-0.5,0.3-0.8c0-0.4-0.2-0.7-0.7-0.9c-0.3-0.1-0.9-0.2-1.9-0.3l-1.4-0.1c-0.9-0.1-1.6-0.2-2-0.3
	c-0.4-0.1-0.8-0.2-1.2-0.4c-0.5-0.3-1-0.7-1.3-1.2c-0.3-0.5-0.4-1-0.4-1.7c0-1,0.4-1.9,1.1-2.6c0.9-0.9,2.3-1.3,4.2-1.3
	c0.8,0,1.5,0.1,2.2,0.2c0.7,0.2,1.5,0.5,2.5,0.9c0.3,0.1,0.6,0.2,0.6,0.2c0.1,0,0.3-0.1,0.4-0.2L13.7,78L13.7,78z"/>
<path d="M24,86.2h-5.6l-0.8,1.7c-0.1,0.2-0.2,0.4-0.2,0.6c0,0.3,0.2,0.4,0.6,0.6v0.3h-4.1V89c0.2,0,0.4-0.1,0.6-0.3
	c0.1-0.1,0.3-0.4,0.4-0.7l4.5-9.5c0.1-0.3,0.2-0.5,0.2-0.7c0-0.3-0.2-0.5-0.5-0.6V77h4.4v0.3c-0.4,0.1-0.5,0.3-0.5,0.5
	c0,0.2,0.1,0.4,0.2,0.6l4.7,9.5c0.2,0.4,0.4,0.7,0.5,0.8c0.2,0.1,0.4,0.2,0.6,0.3v0.3h-4.5V89c0.4-0.1,0.6-0.3,0.6-0.6
	c0-0.1-0.1-0.3-0.2-0.6L24,86.2L24,86.2z M23.2,84.5l-2-4.4l-2,4.4H23.2L23.2,84.5z"/>
<path d="M41,82.9c1.4,0.5,2.1,1.5,2.1,2.9c0,1.1-0.4,2-1.2,2.6c-0.4,0.3-0.9,0.5-1.4,0.7c-0.5,0.1-1.2,0.2-2,0.2H30V89
	c0.2-0.1,0.4-0.1,0.5-0.2c0.1-0.1,0.1-0.2,0.1-0.4V77.9c0-0.2,0-0.3-0.1-0.4c-0.1-0.1-0.2-0.2-0.5-0.2V77h8.3c0.8,0,1.4,0.1,1.9,0.2
	c0.5,0.1,0.9,0.3,1.3,0.6c0.7,0.6,1.1,1.4,1.1,2.5C42.6,81.5,42.1,82.3,41,82.9L41,82.9z M33.3,81.9H38c0.7,0,1.2-0.1,1.5-0.3
	c0.3-0.2,0.5-0.6,0.5-1.1c0-0.5-0.2-0.9-0.4-1.1C39.2,79.1,38.7,79,38,79h-4.7V81.9L33.3,81.9z M33.3,87.3h4.6
	c0.8,0,1.5-0.1,1.8-0.4c0.4-0.3,0.6-0.7,0.6-1.3c0-0.6-0.2-1-0.6-1.3c-0.4-0.2-1-0.4-1.8-0.4h-4.6V87.3L33.3,87.3z"/>
<path d="M48.2,83.9v3.4h7.9c0.2,0,0.3,0,0.4-0.1c0.1-0.1,0.2-0.2,0.2-0.5H57v3.2h-0.3c-0.1-0.2-0.1-0.4-0.2-0.5
	c-0.1-0.1-0.2-0.1-0.4-0.1H44.9V89c0.2-0.1,0.4-0.1,0.5-0.2c0.1-0.1,0.1-0.2,0.1-0.4V77.9c0-0.2,0-0.3-0.1-0.4
	c-0.1-0.1-0.2-0.2-0.5-0.2V77h11c0.2,0,0.3,0,0.4-0.1c0.1-0.1,0.2-0.2,0.2-0.5h0.3v3.2h-0.3c-0.1-0.2-0.1-0.4-0.2-0.4
	C56.2,79.1,56,79,55.9,79h-7.7v2.9h5c0.2,0,0.3,0,0.4-0.1c0.1-0.1,0.2-0.2,0.2-0.5h0.3v3.1h-0.3c-0.1-0.2-0.1-0.4-0.2-0.4
	c-0.1-0.1-0.2-0.1-0.4-0.1H48.2L48.2,83.9z"/>
<path d="M70.4,78l-1.5,2.9l-0.3-0.1c0-0.1,0-0.1,0-0.1c0-0.2-0.2-0.4-0.5-0.7c-1.1-0.7-2.3-1.1-3.8-1.1c-0.6,0-1.2,0.1-1.7,0.2
	c-0.4,0.1-0.6,0.3-0.9,0.5c-0.2,0.2-0.3,0.5-0.3,0.8c0,0.5,0.3,0.8,0.8,0.9c0.3,0.1,0.9,0.2,1.9,0.3l1.4,0.1c0.8,0.1,1.5,0.2,2,0.4
	c0.5,0.2,1,0.4,1.4,0.7c0.4,0.3,0.7,0.7,1,1.2c0.2,0.5,0.4,1,0.4,1.5c0,0.9-0.3,1.6-0.8,2.3c-0.5,0.6-1.3,1.1-2.4,1.4
	c-0.8,0.2-1.6,0.3-2.6,0.3c-1.6,0-3.2-0.4-4.8-1.2c-0.3-0.2-0.5-0.2-0.6-0.2c-0.1,0-0.2,0.1-0.4,0.2l-0.3-0.1l1.3-3l0.3,0.1
	c0,0.1,0,0.1,0,0.1c0,0.3,0.1,0.5,0.4,0.7c0.4,0.3,1,0.6,1.8,0.9c0.8,0.3,1.6,0.4,2.3,0.4c0.8,0,1.5-0.1,2-0.4
	c0.3-0.2,0.6-0.3,0.7-0.6c0.2-0.2,0.3-0.5,0.3-0.8c0-0.4-0.2-0.7-0.7-0.9c-0.3-0.1-0.9-0.2-1.9-0.3l-1.4-0.1c-0.9-0.1-1.6-0.2-2-0.3
	c-0.4-0.1-0.8-0.2-1.2-0.4c-0.5-0.3-1-0.7-1.3-1.2c-0.3-0.5-0.4-1-0.4-1.7c0-1,0.4-1.9,1.1-2.6c0.9-0.9,2.3-1.3,4.2-1.3
	c0.8,0,1.5,0.1,2.2,0.2c0.7,0.2,1.5,0.5,2.5,0.9c0.3,0.1,0.6,0.2,0.6,0.2c0.1,0,0.3-0.1,0.4-0.2L70.4,78L70.4,78z"/>
<path class="st2" d="M1.8,2.4h68.9l0,69C65.6,57.5,57,45.1,45.4,36.1l6.1-6.6c-3.7,1.6-8.2-4.2-6.8-7l-8.1,7.7
	c-9.9-5.6-21.6-9.3-34.9-10.3L1.8,2.4L1.8,2.4z"/>
<path class="st3" d="M45.7,21.5l6.3-6.5c4.6,0.3,6.7,3.1,6.9,7.1l-6.4,6.5C47.9,28,45.8,25.9,45.7,21.5L45.7,21.5z"/>
<path class="st4" d="M1.8,23.4c12.1,1.5,21.6,5.7,30,11.5l-14,13.8l-3.4,5.1l3.8-1.4l-1.8,4.7l5.1-1.6l-1.6,4l5-3.2l15.4-15.2
	c11.3,9.4,15,16.9,19.4,27.1c0.4,1,0.8,2.1,1.2,3.2H1.8L1.8,23.4L1.8,23.4z"/>
<path class="st5" d="M17.4,61.2L11,63l1.8-6.4c0.3,1.1,0.8,2.1,1.7,2.9C15.3,60.4,16.3,60.9,17.4,61.2L17.4,61.2z"/>
<path class="st3" d="M1.8,23.4c13.1,1.8,22.1,6,30,11.6c0.9-0.9,1.9-1.8,2.8-2.6c-8.1-5.5-17.8-9.9-32.7-11.8V23.4L1.8,23.4z"/>
<path class="st3" d="M40.4,41.1c10.2,8.3,16.9,20,20.6,30.3l4.1,0C61.8,62,54.7,48.1,42.8,38.7L40.4,41.1L40.4,41.1z"/>
<path class="st3" d="M20.8,49c7.1-6.9,14.2-14,21.3-21c0,0,2-1.8,1.5-2.2c-0.4-0.4-1.2,0.4-2.3,1.4c-1.1,1-20.6,20.4-21.1,21.2
	c-0.7,0.9-2.4,2.6-2.6,3.2C18.1,51.4,19.8,49.7,20.8,49L20.8,49z"/>
<path class="st3" d="M22.9,51.5c7.1-6.9,14.2-14,21.3-21c0,0,2-1.8,1.5-2.2c-0.4-0.4-1.2,0.4-2.3,1.4c-1.1,1-20.6,20.4-21.1,21.2
	c-0.7,0.9-2.4,2.6-2.6,3.2C20.3,53.8,22,52.2,22.9,51.5L22.9,51.5z"/>
<path class="st3" d="M25.5,53.8c7.1-6.9,14.2-14,21.3-21c0,0,2-1.8,1.5-2.2C47.9,30.2,47.1,31,46,32C45,33,25.5,52.4,24.9,53.1
	c-0.7,0.9-2.4,2.6-2.6,3.2C22.8,56.1,24.5,54.5,25.5,53.8L25.5,53.8z"/>
</svg>
